<svg xmlns="http://www.w3.org/2000/svg" viewBox="0 0 149.09 149.09"><defs><style>.cls-1,.cls-2{fill:#fff;}.cls-2{fill-rule:evenodd;}</style></defs><title>Asset 1</title><g id="Layer_2" data-name="Layer 2"><g id="Layer_1-2" data-name="Layer 1"><path class="cls-1" d="M126.51,126.38h-2.67a.59.59,0,0,1-.34-1l.77-.66a3.52,3.52,0,0,1,2.3-.87h2.67a.59.59,0,0,1,.34,1l-.76.66a3.57,3.57,0,0,1-2.31.87"/><path class="cls-1" d="M130,122.63l-2.67.19a.59.59,0,0,1-.41-1l.73-.72a3.51,3.51,0,0,1,2.23-1l2.67-.19a.59.59,0,0,1,.41,1l-.72.72a3.51,3.51,0,0,1-2.24,1"/><path class="cls-1" d="M133.22,118.65l-2.64.37a.59.59,0,0,1-.48-1l.66-.76a3.55,3.55,0,0,1,2.16-1.19l2.65-.37a.59.59,0,0,1,.48,1l-.66.76a3.6,3.6,0,0,1-2.17,1.19"/><path class="cls-1" d="M136.16,114.45l-2.62.55a.58.58,0,0,1-.54-.94l.61-.81a3.48,3.48,0,0,1,2.07-1.33l2.61-.55a.59.59,0,0,1,.55.94l-.61.81a3.6,3.6,0,0,1-2.07,1.33"/><path class="cls-1" d="M138.79,110.06l-2.57.73a.59.59,0,0,1-.61-.9l.55-.85a3.55,3.55,0,0,1,2-1.47l2.57-.74a.59.59,0,0,1,.61.9l-.55.85a3.56,3.56,0,0,1-2,1.48"/><path class="cls-1" d="M141.11,105.49l-2.51.91a.59.59,0,0,1-.67-.86l.49-.88a3.55,3.55,0,0,1,1.87-1.61l2.51-.91a.59.59,0,0,1,.68.86l-.5.88a3.51,3.51,0,0,1-1.87,1.61"/><path class="cls-1" d="M143.11,100.77l-2.44,1.09a.6.6,0,0,1-.74-.81l.44-.92a3.47,3.47,0,0,1,1.75-1.73l2.44-1.09a.59.59,0,0,1,.73.81l-.43.92a3.55,3.55,0,0,1-1.75,1.73"/><path class="cls-1" d="M144.77,95.93l-2.36,1.25a.59.59,0,0,1-.78-.75l.36-1a3.57,3.57,0,0,1,1.63-1.85L146,92.37a.59.59,0,0,1,.78.76l-.36.94a3.51,3.51,0,0,1-1.63,1.86"/><path class="cls-1" d="M146.09,91l-2.26,1.42a.6.6,0,0,1-.84-.7l.3-1a3.54,3.54,0,0,1,1.5-2l2.26-1.41a.59.59,0,0,1,.83.7l-.29,1a3.55,3.55,0,0,1-1.5,2"/><path class="cls-1" d="M147.06,86l-2.16,1.57a.59.59,0,0,1-.88-.64l.23-1a3.59,3.59,0,0,1,1.35-2.07l2.17-1.57a.59.59,0,0,1,.88.64l-.23,1A3.53,3.53,0,0,1,147.06,86"/><path class="cls-1" d="M147.69,80.87l-2.05,1.71a.59.59,0,0,1-.93-.57l.16-1a3.54,3.54,0,0,1,1.21-2.16l2-1.71a.59.59,0,0,1,.92.57l-.16,1a3.57,3.57,0,0,1-1.2,2.16"/><path class="cls-1" d="M148,75.75,146,77.61a.6.6,0,0,1-1-.51l.09-1a3.51,3.51,0,0,1,1.06-2.23L148.13,72a.59.59,0,0,1,1,.51l-.09,1A3.49,3.49,0,0,1,148,75.75"/><path class="cls-1" d="M147.85,70.63l-1.78,2a.59.59,0,0,1-1-.44l0-1a3.52,3.52,0,0,1,.89-2.3l1.79-2a.6.6,0,0,1,1,.45l0,1a3.58,3.58,0,0,1-.9,2.3"/><path class="cls-1" d="M147.4,65.53l-1.64,2.1a.59.59,0,0,1-1-.37l0-1a3.59,3.59,0,0,1,.73-2.36l1.65-2.1a.59.59,0,0,1,1,.37l0,1a3.48,3.48,0,0,1-.73,2.36"/><path class="cls-1" d="M146.6,60.47l-1.5,2.21a.59.59,0,0,1-1-.3l-.12-1a3.52,3.52,0,0,1,.56-2.4l1.5-2.21a.59.59,0,0,1,1,.29l.12,1a3.53,3.53,0,0,1-.56,2.4"/><path class="cls-1" d="M145.43,55.48l-1.33,2.31a.59.59,0,0,1-1.07-.23l-.19-1a3.52,3.52,0,0,1,.4-2.43l1.33-2.31a.59.59,0,0,1,1.07.22l.19,1a3.48,3.48,0,0,1-.4,2.43"/><path class="cls-1" d="M143.93,50.58,142.76,53a.58.58,0,0,1-1.07-.15l-.27-1a3.5,3.5,0,0,1,.23-2.45l1.17-2.4a.59.59,0,0,1,1.08.15l.26,1a3.5,3.5,0,0,1-.23,2.45"/><path class="cls-1" d="M142.09,45.8l-1,2.48A.58.58,0,0,1,140,48.2l-.33-1a3.42,3.42,0,0,1,0-2.46l1-2.48a.58.58,0,0,1,1.08.08l.33,1a3.42,3.42,0,0,1,0,2.46"/><path class="cls-1" d="M139.92,41.16l-.83,2.54a.59.59,0,0,1-1.09,0l-.39-.93a3.6,3.6,0,0,1-.12-2.46l.83-2.54a.59.59,0,0,1,1.09,0l.4.93a3.54,3.54,0,0,1,.11,2.46"/><path class="cls-1" d="M137.43,36.69l-.64,2.58a.59.59,0,0,1-1.09.09l-.46-.91A3.54,3.54,0,0,1,135,36l.65-2.59a.59.59,0,0,1,1.09-.07l.45.9a3.54,3.54,0,0,1,.29,2.45"/><path class="cls-1" d="M134.64,32.39,134.17,35a.59.59,0,0,1-1.08.16l-.52-.87a3.53,3.53,0,0,1-.45-2.43l.46-2.62a.59.59,0,0,1,1.08-.16l.52.87a3.57,3.57,0,0,1,.46,2.42"/><path class="cls-1" d="M131.55,28.31,131.27,31a.59.59,0,0,1-1.07.23l-.57-.83A3.47,3.47,0,0,1,129,28l.28-2.66a.59.59,0,0,1,1.06-.23l.58.83a3.49,3.49,0,0,1,.63,2.39"/><path class="cls-1" d="M128.18,24.44l-.09,2.67a.59.59,0,0,1-1,.3l-.63-.79a3.45,3.45,0,0,1-.79-2.33l.09-2.67a.59.59,0,0,1,1.05-.3l.63.79a3.47,3.47,0,0,1,.79,2.33"/><path class="cls-1" d="M124.56,20.82l.09,2.67a.59.59,0,0,1-1,.38l-.69-.74a3.55,3.55,0,0,1-1-2.28l-.09-2.67a.59.59,0,0,1,1-.37l.68.74a3.52,3.52,0,0,1,1,2.27"/><path class="cls-1" d="M120.69,17.47l.27,2.65a.59.59,0,0,1-1,.45l-.74-.69a3.54,3.54,0,0,1-1.11-2.21L117.84,15a.6.6,0,0,1,1-.45l.74.7a3.54,3.54,0,0,1,1.11,2.2"/><path class="cls-1" d="M116.59,14.39l.46,2.63a.58.58,0,0,1-1,.51l-.79-.63A3.63,3.63,0,0,1,114,14.78l-.46-2.63a.59.59,0,0,1,1-.52l.79.64a3.55,3.55,0,0,1,1.26,2.12"/><path class="cls-1" d="M112.29,11.61l.65,2.59a.6.6,0,0,1-.93.58l-.82-.59a3.48,3.48,0,0,1-1.41-2l-.65-2.59a.59.59,0,0,1,.93-.58l.82.58a3.53,3.53,0,0,1,1.41,2"/><path class="cls-1" d="M107.81,9.12l.82,2.54a.59.59,0,0,1-.88.65l-.87-.53a3.51,3.51,0,0,1-1.54-1.92l-.82-2.54a.59.59,0,0,1,.88-.64l.86.52a3.57,3.57,0,0,1,1.55,1.92"/><path class="cls-1" d="M103.16,7l1,2.47a.59.59,0,0,1-.83.71l-.9-.46a3.59,3.59,0,0,1-1.68-1.82l-1-2.47a.59.59,0,0,1,.83-.71l.91.47A3.51,3.51,0,0,1,103.16,7"/><path class="cls-1" d="M98.37,5.14l1.17,2.4a.59.59,0,0,1-.78.76l-.93-.41A3.49,3.49,0,0,1,96,6.2L94.86,3.81a.59.59,0,0,1,.79-.76l.93.4a3.48,3.48,0,0,1,1.79,1.69"/><path class="cls-1" d="M93.47,3.64,94.81,6a.6.6,0,0,1-.73.82l-1-.33a3.61,3.61,0,0,1-1.91-1.56L89.88,2.57a.59.59,0,0,1,.73-.82l1,.34a3.51,3.51,0,0,1,1.91,1.55"/><path class="cls-1" d="M88.48,2.5,90,4.71a.59.59,0,0,1-.67.86l-1-.26a3.56,3.56,0,0,1-2-1.42L84.82,1.67a.59.59,0,0,1,.67-.86l1,.27a3.48,3.48,0,0,1,2,1.42"/><path class="cls-1" d="M83.42,1.7l1.64,2.1a.59.59,0,0,1-.61.91l-1-.2a3.5,3.5,0,0,1-2.11-1.28l-1.64-2.1a.59.59,0,0,1,.61-.91l1,.2A3.55,3.55,0,0,1,83.42,1.7"/><path class="cls-1" d="M78.31,1.26l1.79,2a.59.59,0,0,1-.55,1l-1-.13a3.49,3.49,0,0,1-2.19-1.13L74.57,1A.59.59,0,0,1,75.12,0l1,.13a3.49,3.49,0,0,1,2.19,1.13"/><path class="cls-1" d="M73.19,1.17,75.11,3a.59.59,0,0,1-.48,1l-1-.06a3.48,3.48,0,0,1-2.27-1L69.44,1.13a.59.59,0,0,1,.47-1l1,.06a3.53,3.53,0,0,1,2.27,1"/><path class="cls-1" d="M68.07,1.45l2.05,1.72a.59.59,0,0,1-.41,1h-1a3.47,3.47,0,0,1-2.33-.81l-2-1.72a.58.58,0,0,1,.4-1h1a3.52,3.52,0,0,1,2.33.81"/><path class="cls-1" d="M63,2.08l2.16,1.57a.59.59,0,0,1-.33,1l-1,.08a3.52,3.52,0,0,1-2.39-.65L59.27,2.55a.59.59,0,0,1,.33-1l1-.08A3.51,3.51,0,0,1,63,2.08"/><path class="cls-1" d="M58,3.06l2.26,1.41A.59.59,0,0,1,60,5.53l-1,.16a3.53,3.53,0,0,1-2.42-.48L54.28,3.8a.6.6,0,0,1,.26-1.07l1-.15A3.51,3.51,0,0,1,58,3.06"/><path class="cls-1" d="M53,4.39l2.36,1.25a.59.59,0,0,1-.19,1.08L54.2,7a3.51,3.51,0,0,1-2.45-.32L49.39,5.38a.59.59,0,0,1,.19-1.07l1-.23A3.56,3.56,0,0,1,53,4.39"/><path class="cls-1" d="M48.17,6.07l2.44,1.08a.6.6,0,0,1-.11,1.09l-1,.29a3.53,3.53,0,0,1-2.46-.14L44.62,7.31a.6.6,0,0,1,.11-1.09l1-.3a3.56,3.56,0,0,1,2.47.15"/><path class="cls-1" d="M43.45,8.07,46,9a.59.59,0,0,1,0,1.09l-1,.36a3.56,3.56,0,0,1-2.47,0L40,9.56a.6.6,0,0,1,0-1.1l1-.36a3.53,3.53,0,0,1,2.46,0"/><path class="cls-1" d="M38.89,10.4l2.57.74a.59.59,0,0,1,0,1.09l-.92.42a3.56,3.56,0,0,1-2.46.21l-2.57-.74a.59.59,0,0,1,0-1.09l.92-.42a3.5,3.5,0,0,1,2.46-.21"/><path class="cls-1" d="M34.5,13l2.61.56a.59.59,0,0,1,.12,1.08l-.89.49a3.53,3.53,0,0,1-2.44.38L31.29,15a.59.59,0,0,1-.12-1.08l.9-.49A3.51,3.51,0,0,1,34.5,13"/><path class="cls-1" d="M30.31,16l2.64.37a.58.58,0,0,1,.19,1.07l-.85.55a3.48,3.48,0,0,1-2.4.54l-2.65-.37a.59.59,0,0,1-.19-1.07l.85-.55A3.51,3.51,0,0,1,30.31,16"/><path class="cls-1" d="M26.33,19.22,29,19.4a.59.59,0,0,1,.27,1.06l-.82.6a3.53,3.53,0,0,1-2.35.72l-2.67-.19a.59.59,0,0,1-.26-1.06l.81-.61a3.42,3.42,0,0,1,2.36-.7"/><path class="cls-1" d="M22.58,22.71h2.68a.59.59,0,0,1,.33,1l-.76.66a3.57,3.57,0,0,1-2.31.87H19.85a.59.59,0,0,1-.34-1l.77-.67a3.52,3.52,0,0,1,2.3-.87"/><path class="cls-1" d="M19.09,26.46l2.67-.18a.59.59,0,0,1,.41,1l-.72.71a3.51,3.51,0,0,1-2.24,1l-2.66.19a.59.59,0,0,1-.41-1l.71-.72a3.54,3.54,0,0,1,2.24-1"/><path class="cls-1" d="M15.87,30.44l2.65-.37a.59.59,0,0,1,.48,1l-.67.76A3.55,3.55,0,0,1,16.17,33l-2.64.37a.59.59,0,0,1-.49-1l.67-.76a3.55,3.55,0,0,1,2.16-1.19"/><path class="cls-1" d="M12.94,34.64l2.61-.55a.59.59,0,0,1,.55.94l-.61.81a3.63,3.63,0,0,1-2.08,1.33l-2.61.55a.59.59,0,0,1-.55-.94l.62-.8a3.49,3.49,0,0,1,2.07-1.34"/><path class="cls-1" d="M10.3,39l2.57-.74a.59.59,0,0,1,.61.9l-.55.85a3.57,3.57,0,0,1-2,1.48l-2.57.73a.59.59,0,0,1-.61-.9l.56-.85a3.52,3.52,0,0,1,2-1.47"/><path class="cls-1" d="M8,43.6l2.51-.91a.59.59,0,0,1,.68.86l-.5.88A3.47,3.47,0,0,1,8.8,46L6.29,47a.58.58,0,0,1-.67-.85l.49-.89A3.59,3.59,0,0,1,8,43.6"/><path class="cls-1" d="M6,48.32l2.43-1.09a.59.59,0,0,1,.74.81L8.73,49A3.53,3.53,0,0,1,7,50.69L4.53,51.78A.59.59,0,0,1,3.8,51l.43-.92A3.53,3.53,0,0,1,6,48.32"/><path class="cls-1" d="M4.32,53.16l2.36-1.25a.59.59,0,0,1,.79.75l-.37,1a3.48,3.48,0,0,1-1.63,1.85L3.12,56.72A.59.59,0,0,1,2.33,56L2.69,55a3.59,3.59,0,0,1,1.63-1.86"/><path class="cls-1" d="M3,58.11,5.27,56.7a.58.58,0,0,1,.83.69l-.29,1a3.58,3.58,0,0,1-1.5,2L2,61.74a.59.59,0,0,1-.83-.7l.3-1a3.52,3.52,0,0,1,1.49-2"/><path class="cls-1" d="M2,63.14l2.16-1.57a.59.59,0,0,1,.88.64l-.23,1a3.5,3.5,0,0,1-1.35,2.06L1.33,66.83a.59.59,0,0,1-.88-.64l.23-1A3.5,3.5,0,0,1,2,63.14"/><path class="cls-1" d="M1.41,68.22l2-1.71a.59.59,0,0,1,.93.57l-.16,1A3.51,3.51,0,0,1,3,70.24L1,72A.59.59,0,0,1,0,71.38l.16-1a3.56,3.56,0,0,1,1.21-2.16"/><path class="cls-1" d="M1.15,73.34l1.92-1.86A.59.59,0,0,1,4,72l-.09,1a3.57,3.57,0,0,1-1,2.23L1,77.09a.59.59,0,0,1-1-.51l.1-1a3.45,3.45,0,0,1,1-2.23"/><path class="cls-1" d="M1.24,78.46l1.79-2a.59.59,0,0,1,1,.44l0,1a3.49,3.49,0,0,1-.89,2.3l-1.79,2a.58.58,0,0,1-1-.44l0-1a3.49,3.49,0,0,1,.89-2.3"/><path class="cls-1" d="M1.69,83.56l1.65-2.1a.59.59,0,0,1,1,.37l.06,1a3.59,3.59,0,0,1-.74,2.35L2,87.3a.59.59,0,0,1-1-.37l-.05-1a3.59,3.59,0,0,1,.73-2.36"/><path class="cls-1" d="M2.5,88.62,4,86.41a.59.59,0,0,1,1,.3l.12,1a3.48,3.48,0,0,1-.56,2.4L3.1,92.32a.58.58,0,0,1-1-.29l-.13-1a3.54,3.54,0,0,1,.57-2.4"/><path class="cls-1" d="M3.66,93.61,5,91.3a.59.59,0,0,1,1.07.23l.19,1A3.46,3.46,0,0,1,5.85,95L4.52,97.27A.59.59,0,0,1,3.45,97l-.19-1a3.55,3.55,0,0,1,.4-2.44"/><path class="cls-1" d="M5.16,98.51l1.17-2.4a.59.59,0,0,1,1.08.15l.26,1a3.45,3.45,0,0,1-.23,2.45l-1.17,2.4a.59.59,0,0,1-1.08-.15l-.26-1a3.53,3.53,0,0,1,.23-2.46"/><path class="cls-1" d="M7,103.29l1-2.47a.59.59,0,0,1,1.09.07l.33,1a3.53,3.53,0,0,1-.05,2.46l-1,2.47a.59.59,0,0,1-1.09-.07l-.33-1a3.53,3.53,0,0,1,0-2.46"/><path class="cls-1" d="M9.17,107.93l.83-2.54a.59.59,0,0,1,1.09,0l.39.93a3.49,3.49,0,0,1,.12,2.46l-.82,2.54a.59.59,0,0,1-1.09,0l-.4-.94a3.54,3.54,0,0,1-.12-2.46"/><path class="cls-1" d="M11.66,112.41l.65-2.59a.59.59,0,0,1,1.09-.08l.46.9a3.59,3.59,0,0,1,.28,2.45l-.65,2.59a.59.59,0,0,1-1.08.08l-.46-.91a3.52,3.52,0,0,1-.29-2.44"/><path class="cls-1" d="M14.45,116.7l.47-2.63a.59.59,0,0,1,1.08-.16l.52.87A3.58,3.58,0,0,1,17,117.2l-.46,2.63a.6.6,0,0,1-1.09.16l-.51-.87a3.57,3.57,0,0,1-.47-2.42"/><path class="cls-1" d="M17.54,120.78l.28-2.65a.59.59,0,0,1,1.07-.23l.58.83a3.59,3.59,0,0,1,.63,2.39l-.28,2.65a.59.59,0,0,1-1.07.23l-.58-.83a3.59,3.59,0,0,1-.63-2.39"/><path class="cls-1" d="M20.91,124.65,21,122a.58.58,0,0,1,1-.3l.64.79a3.51,3.51,0,0,1,.79,2.33l-.09,2.67a.59.59,0,0,1-1.05.3L21.7,127a3.51,3.51,0,0,1-.79-2.33"/><path class="cls-1" d="M24.54,128.27l-.1-2.67a.6.6,0,0,1,1-.38l.69.75a3.54,3.54,0,0,1,.95,2.27l.09,2.66a.59.59,0,0,1-1,.38l-.69-.74a3.58,3.58,0,0,1-.95-2.27"/><path class="cls-1" d="M28.41,131.62,28.13,129a.59.59,0,0,1,1-.45l.74.69A3.49,3.49,0,0,1,31,131.42l.29,2.65a.6.6,0,0,1-1,.45l-.74-.7a3.51,3.51,0,0,1-1.11-2.2"/><path class="cls-1" d="M32.5,134.7,32,132.07a.59.59,0,0,1,1-.51l.79.64a3.52,3.52,0,0,1,1.26,2.12l.46,2.62a.59.59,0,0,1-1,.52l-.79-.64a3.55,3.55,0,0,1-1.26-2.12"/><path class="cls-1" d="M36.8,137.49l-.64-2.59a.59.59,0,0,1,.92-.58l.83.58a3.48,3.48,0,0,1,1.4,2l.65,2.58a.59.59,0,0,1-.92.58l-.83-.58a3.51,3.51,0,0,1-1.41-2"/><path class="cls-1" d="M41.29,140l-.83-2.53a.59.59,0,0,1,.88-.65l.87.53a3.51,3.51,0,0,1,1.54,1.92l.83,2.54a.59.59,0,0,1-.89.64l-.86-.52A3.54,3.54,0,0,1,41.29,140"/><path class="cls-1" d="M45.93,142.12l-1-2.47a.59.59,0,0,1,.84-.7l.9.46a3.47,3.47,0,0,1,1.67,1.81l1,2.47a.59.59,0,0,1-.83.71l-.9-.47a3.53,3.53,0,0,1-1.68-1.81"/><path class="cls-1" d="M50.72,144l-1.17-2.39a.6.6,0,0,1,.78-.77l.93.41a3.52,3.52,0,0,1,1.8,1.68l1.17,2.4a.59.59,0,0,1-.78.76l-.93-.4a3.5,3.5,0,0,1-1.8-1.69"/><path class="cls-1" d="M55.62,145.44l-1.33-2.31a.59.59,0,0,1,.73-.81l.95.33a3.57,3.57,0,0,1,1.91,1.56l1.34,2.31a.6.6,0,0,1-.73.82l-1-.33a3.54,3.54,0,0,1-1.91-1.57"/><path class="cls-1" d="M60.61,146.59l-1.49-2.21a.59.59,0,0,1,.67-.86l1,.26a3.54,3.54,0,0,1,2,1.43l1.5,2.21a.59.59,0,0,1-.67.86l-1-.26a3.53,3.53,0,0,1-2-1.43"/><path class="cls-1" d="M65.68,147.39,64,145.29a.59.59,0,0,1,.6-.91l1,.2a3.48,3.48,0,0,1,2.11,1.28l1.65,2.1a.59.59,0,0,1-.61.91l-1-.2a3.52,3.52,0,0,1-2.11-1.28"/><path class="cls-1" d="M70.78,147.83l-1.79-2a.59.59,0,0,1,.55-.95l1,.13a3.44,3.44,0,0,1,2.19,1.13l1.79,2a.59.59,0,0,1-.54,1L73,149a3.51,3.51,0,0,1-2.19-1.13"/><path class="cls-1" d="M75.9,147.92,74,146.06a.59.59,0,0,1,.47-1l1,.06a3.48,3.48,0,0,1,2.27,1L79.66,148a.59.59,0,0,1-.48,1l-1-.05a3.58,3.58,0,0,1-2.27-1"/><path class="cls-1" d="M81,147.64l-2-1.72a.58.58,0,0,1,.4-1h1a3.47,3.47,0,0,1,2.33.81l2,1.72a.59.59,0,0,1-.41,1h-1a3.47,3.47,0,0,1-2.33-.81"/><path class="cls-1" d="M86.11,147l-2.17-1.57a.59.59,0,0,1,.34-1l1-.09a3.56,3.56,0,0,1,2.38.65l2.16,1.57a.58.58,0,0,1-.33,1l-1,.09a3.51,3.51,0,0,1-2.38-.65"/><path class="cls-1" d="M91.13,146l-2.26-1.42a.58.58,0,0,1,.26-1.05l1-.16a3.57,3.57,0,0,1,2.42.48l2.27,1.42a.59.59,0,0,1-.26,1.06l-1,.15a3.53,3.53,0,0,1-2.42-.48"/><path class="cls-1" d="M96.09,144.7l-2.36-1.25a.59.59,0,0,1,.18-1.08l1-.22a3.45,3.45,0,0,1,2.45.31l2.36,1.25a.59.59,0,0,1-.19,1.07l-1,.23a3.53,3.53,0,0,1-2.44-.31"/><path class="cls-1" d="M100.93,143l-2.44-1.09a.59.59,0,0,1,.11-1.09l1-.29a3.53,3.53,0,0,1,2.46.14l2.44,1.09a.59.59,0,0,1-.11,1.08l-1,.3a3.58,3.58,0,0,1-2.46-.14"/><path class="cls-1" d="M105.64,141l-2.51-.92a.59.59,0,0,1,0-1.08l1-.36a3.5,3.5,0,0,1,2.47,0l2.51.91a.59.59,0,0,1,0,1.09l-1,.36a3.5,3.5,0,0,1-2.47,0"/><path class="cls-1" d="M110.2,138.69l-2.56-.74a.59.59,0,0,1,0-1.09l.92-.42a3.56,3.56,0,0,1,2.46-.21l2.57.74a.59.59,0,0,1,0,1.09l-.92.43a3.55,3.55,0,0,1-2.46.2"/><path class="cls-1" d="M114.59,136.05l-2.61-.56a.59.59,0,0,1-.12-1.08l.89-.49a3.48,3.48,0,0,1,2.44-.37l2.61.55a.59.59,0,0,1,.12,1.09l-.89.48a3.54,3.54,0,0,1-2.44.38"/><path class="cls-1" d="M118.79,133.11l-2.65-.38a.59.59,0,0,1-.19-1.07l.85-.55a3.58,3.58,0,0,1,2.41-.55l2.64.38a.59.59,0,0,1,.2,1.07l-.86.55a3.55,3.55,0,0,1-2.4.55"/><path class="cls-1" d="M122.77,129.88l-2.67-.19a.59.59,0,0,1-.26-1.06l.81-.6a3.49,3.49,0,0,1,2.36-.71l2.66.18a.59.59,0,0,1,.27,1.06l-.82.61a3.52,3.52,0,0,1-2.35.71"/><polygon class="cls-2" points="68.25 15.72 72.15 12.92 70.64 8.32 74.51 11.16 78.42 8.3 76.92 12.86 80.84 15.7 76.04 15.68 74.56 20.29 73.09 15.71 68.25 15.72"/><polygon class="cls-2" points="46.22 22.61 48.75 18.53 45.59 14.85 50.26 16 52.78 11.86 53.13 16.65 57.84 17.77 53.4 19.59 53.79 24.41 50.69 20.75 46.22 22.61"/><polygon class="cls-2" points="28.5 37.41 29.27 32.66 24.95 30.48 29.7 29.75 30.45 24.96 32.61 29.25 37.39 28.48 33.98 31.86 36.19 36.17 31.92 33.97 28.5 37.41"/><polygon class="cls-2" points="17.79 57.85 16.69 53.18 11.86 52.81 15.97 50.32 14.83 45.61 18.47 48.75 22.59 46.21 20.73 50.64 24.42 53.77 19.63 53.38 17.79 57.85"/><polygon class="cls-2" points="15.72 80.84 12.92 76.94 8.32 78.45 11.16 74.58 8.3 70.67 12.86 72.17 15.7 68.25 15.68 73.05 20.29 74.54 15.71 76 15.72 80.84"/><polygon class="cls-2" points="22.61 102.87 18.53 100.34 14.85 103.5 16 98.83 11.86 96.31 16.65 95.96 17.77 91.25 19.59 95.69 24.41 95.3 20.75 98.41 22.61 102.87"/><polygon class="cls-2" points="37.41 120.59 32.66 119.82 30.48 124.14 29.75 119.39 24.96 118.64 29.25 116.48 28.48 111.7 31.86 115.12 36.17 112.91 33.97 117.18 37.41 120.59"/><polygon class="cls-2" points="57.85 131.3 53.18 132.4 52.81 137.23 50.32 133.12 45.61 134.26 48.75 130.63 46.21 126.5 50.64 128.36 53.77 124.67 53.38 129.46 57.85 131.3"/><polygon class="cls-2" points="80.84 133.37 76.94 136.17 78.45 140.77 74.58 137.93 70.67 140.79 72.17 136.23 68.25 133.39 73.05 133.41 74.54 128.81 76 133.38 80.84 133.37"/><polygon class="cls-2" points="102.87 126.48 100.34 130.56 103.5 134.24 98.83 133.1 96.31 137.23 95.96 132.44 91.25 131.32 95.69 129.5 95.3 124.68 98.41 128.34 102.87 126.48"/><polygon class="cls-2" points="120.59 111.69 119.82 116.43 124.14 118.61 119.39 119.34 118.64 124.13 116.48 119.84 111.7 120.61 115.12 117.23 112.91 112.92 117.18 115.12 120.59 111.69"/><polygon class="cls-2" points="131.3 91.24 132.4 95.92 137.23 96.28 133.12 98.77 134.26 103.48 130.63 100.34 126.5 102.88 128.36 98.45 124.67 95.32 129.46 95.72 131.3 91.24"/><polygon class="cls-2" points="133.37 68.25 136.17 72.15 140.77 70.64 137.93 74.51 140.79 78.42 136.23 76.92 133.39 80.84 133.41 76.04 128.81 74.56 133.38 73.09 133.37 68.25"/><polygon class="cls-2" points="126.48 46.22 130.56 48.75 134.24 45.59 133.1 50.26 137.23 52.78 132.44 53.13 131.32 57.84 129.5 53.4 124.68 53.79 128.34 50.69 126.48 46.22"/><polygon class="cls-2" points="111.69 28.5 116.43 29.27 118.61 24.95 119.34 29.7 124.13 30.45 119.84 32.61 120.61 37.39 117.23 33.98 112.92 36.19 115.12 31.92 111.69 28.5"/><polygon class="cls-2" points="91.24 17.79 95.92 16.69 96.28 11.86 98.77 15.97 103.48 14.83 100.34 18.47 102.88 22.59 98.45 20.73 95.32 24.42 95.72 19.63 91.24 17.79"/><path class="cls-1" d="M74.55,112.52a38,38,0,1,1,38-38,38,38,0,0,1-38,38m0-74.84a36.87,36.87,0,1,0,36.86,36.86A36.91,36.91,0,0,0,74.55,37.68"/><path class="cls-1" d="M74.55,125.67a51.13,51.13,0,1,1,51.13-51.13,51.19,51.19,0,0,1-51.13,51.13m0-101.11a50,50,0,1,0,50,50,50,50,0,0,0-50-50"/><path class="cls-1" d="M62,118.08l1.59.49-.35,1.13-4.55-1.4.34-1.13,1.62.5,1.48-4.8,1.34.41Z"/><path class="cls-1" d="M55.08,116.77l1.58-3.2c.47-1,.34-1.63-.3-1.94s-1.25,0-1.73.94l-1.58,3.2-1.26-.61L53.33,112c.85-1.71,2.11-2.11,3.57-1.39s1.85,1.87,1,3.65l-1.53,3.1Zm-1.8.22a.62.62,0,1,1-.28-.84A.62.62,0,0,1,53.28,117Zm1.72.84a.63.63,0,0,1-.85.29.62.62,0,0,1-.26-.84.61.61,0,0,1,.82-.29A.62.62,0,0,1,55,117.83Z"/><path class="cls-1" d="M49.2,113.47a11.19,11.19,0,0,1-1.59-1,3.14,3.14,0,0,1-1.34-1.57,1.56,1.56,0,0,1,.29-1.38,1.64,1.64,0,0,1,1.78-.61l0,0a1.57,1.57,0,0,1,0-1.42,16,16,0,0,0,.61-1.72l1.17.84a8.35,8.35,0,0,1-.49,1.43c-.32.72-.23,1,.23,1.39l.34.25,1.43-2,1.13.82Zm.43-3-.44-.32c-.57-.41-1.11-.37-1.43.07s-.19.92.33,1.31a4.25,4.25,0,0,0,.54.33Z"/><path class="cls-1" d="M43.35,109.06l-1-1,1.93-1.94v0l-.78.18-2.45.47-1.22-1.21,3.31-.43,1-4,1.16,1.16-.81,3,.84-.09,1.42-1.44,1,1Z"/><path class="cls-1" d="M37.48,104.22a.64.64,0,0,1-.9-.12.62.62,0,0,1,.13-.88.63.63,0,0,1,.87.1A.64.64,0,0,1,37.48,104.22Zm0-1.66,4.89-3.82.87,1.11-4.9,3.82Z"/><path class="cls-1" d="M40.35,95.86l-2.17,1.31-2.13,3.57-.83-1.37,1-1.32c.29-.4.51-.67.77-1h0c-.4.08-.78.14-1.25.21l-1.6.23-.81-1.35L37.42,96l2.21-1.33Z"/><path class="cls-1" d="M34.12,89.09,35,91.21l1.36-.56-1-2.36,1.07-.44L38,91.52,32.2,93.87l-1.45-3.55,1.07-.43.92,2.24,1.19-.49-.87-2.12Z"/><path class="cls-1" d="M34.27,79.21a4,4,0,0,1,.54,1.52,3,3,0,0,1-2.49,3.74,3.18,3.18,0,0,1-3.84-2.77,3.81,3.81,0,0,1,0-1.55l1.15.09a3.09,3.09,0,0,0,0,1.2A1.88,1.88,0,0,0,32,83a1.85,1.85,0,0,0,1.65-2.31,3.65,3.65,0,0,0-.4-1.12Z"/><path class="cls-1" d="M28.05,76.19l3.57,0c1.07,0,1.61-.42,1.6-1.14s-.53-1.13-1.63-1.12L28,73.93v-1.4l3.47,0c1.92,0,2.84.93,2.86,2.55s-.83,2.5-2.81,2.52l-3.46,0Z"/><path class="cls-1" d="M32.89,64.9c-.73-.11-1.63-.24-2.51-.4v0c.75.33,1.57.74,2.24,1.1l2.25,1.18-.2,1.08-2.48.22c-.75.07-1.66.12-2.48.12v0c.82.18,1.75.38,2.5.56l2.3.53-.23,1.28-6-1.5.33-1.83,2.15-.23c.74-.06,1.53-.12,2.27-.12v0c-.68-.3-1.45-.65-2.09-1l-1.91-1,.33-1.81,6.16.78-.24,1.34Z"/><path class="cls-1" d="M30.85,58.48l2.21.88.85-2.15-2.22-.88.52-1.3L38,57.31l-.52,1.3-2.41-1-.85,2.15,2.41.95-.51,1.31-5.77-2.28Z"/><path class="cls-1" d="M34.36,51l3,1.87c.91.56,1.59.5,2-.11s.16-1.24-.77-1.81l-3-1.88.73-1.19,3,1.83c1.63,1,1.89,2.3,1,3.68s-2,1.66-3.72.62l-2.94-1.82Z"/><path class="cls-1" d="M38.19,45.51A11.94,11.94,0,0,1,39.32,44,3.13,3.13,0,0,1,41,42.83a1.54,1.54,0,0,1,1.35.42,1.63,1.63,0,0,1,.43,1.83l0,0a1.56,1.56,0,0,1,1.42.14c.65.31,1.39.7,1.65.77l-.94,1.08a8,8,0,0,1-1.38-.62c-.69-.39-1-.33-1.41.1l-.27.32,1.83,1.6-.91,1Zm2.92.71.37-.42c.46-.52.47-1.07.06-1.42s-.9-.27-1.33.21a3.49,3.49,0,0,0-.39.5Z"/><path class="cls-1" d="M42.47,39.43a.64.64,0,0,1,.06-.91.63.63,0,0,1,.84.94A.64.64,0,0,1,42.47,39.43Zm1.65-.16,4.13,4.63-1,.94-4.13-4.63Z"/><path class="cls-1" d="M51,41.73l-1.45-2.09-3.7-1.9,1.32-.91,1.37.86c.42.26.71.46,1.07.71h0c-.1-.4-.18-.78-.29-1.25L49,35.56l1.3-.9.38,4.14,1.47,2.13Z"/><path class="cls-1" d="M57.35,35.07l-2.05,1L56,37.39l2.29-1.11.5,1-3.55,1.74-2.73-5.58,3.44-1.68.51,1-2.18,1.06.57,1.16,2.05-1Z"/><path class="cls-1" d="M60.06,31.48,58.47,32l-.36-1.12,4.54-1.46L63,30.54l-1.61.51,1.53,4.79-1.34.43Z"/><path class="cls-1" d="M64.82,28a.64.64,0,0,1,.51-.75.63.63,0,0,1,.73.51.62.62,0,0,1-.49.73A.64.64,0,0,1,64.82,28Zm1.5.71,1.19,6.09L66.12,35l-1.18-6.09Z"/><path class="cls-1" d="M77.34,31.8c0-.74,0-1.65,0-2.55h0c-.21.79-.48,1.67-.73,2.39l-.8,2.41-1.1,0-.62-2.42c-.19-.73-.38-1.61-.51-2.42h0c0,.84-.1,1.8-.16,2.57l-.15,2.35-1.3,0,.51-6.19,1.86,0L74.86,30c.19.72.36,1.5.49,2.23h0c.18-.72.41-1.53.62-2.22L76.7,28l1.83,0,.24,6.21-1.38,0Z"/><path class="cls-1" d="M83.13,28.7l-1,6.12-1.39-.24,1-6.12ZM82,27.5a.64.64,0,0,1,.74-.52.62.62,0,0,1,.51.73.63.63,0,0,1-.72.52A.64.64,0,0,1,82,27.5Z"/><path class="cls-1" d="M85.93,29.28l1.36.39-1.41,4.84,2.37.69-.33,1.13L84.2,35.24Z"/><path class="cls-1" d="M92,31.25l1.28.57-2,4.59,2.26,1L93,38.49l-3.54-1.58Z"/><path class="cls-1" d="M98.77,34.7,95.63,40l-1.21-.71L97.56,34Zm.59-1.36.22,1.45-.84-.5-.11-.73h0l-.68.26-.84-.49,1.36-.51Z"/><path class="cls-1" d="M104.24,43.33l-1.72-1.5-1,1.11,1.93,1.67-.76.87-3-2.6,4.08-4.68,2.88,2.52-.75.87L104.12,40l-.85,1,1.72,1.5Z"/><path class="cls-1" d="M107.51,50.51a7.13,7.13,0,0,1-1.6-1.37,3.47,3.47,0,0,1-1-2.47,3,3,0,0,1,1.17-2.12c1.59-1.31,3.46-.91,4.76.65a4.31,4.31,0,0,1,.87,1.51l-1,.5a3.54,3.54,0,0,0-.72-1.28,1.88,1.88,0,0,0-2.86-.29,1.86,1.86,0,0,0-.31,2.8,2.14,2.14,0,0,0,.51.47l1-.83-.62-.74.85-.7L110,48.41Zm3.9-7a.49.49,0,0,0,0,.69.52.52,0,0,0,.7.17l.46.55a1.13,1.13,0,0,1-1.72-.24,1.12,1.12,0,0,1,.07-1.74Z"/><path class="cls-1" d="M114.33,50.23l-5.23,3.31-.76-1.18L113.58,49Zm.12-1.65a.63.63,0,0,1,.88.21.6.6,0,0,1-.2.85.63.63,0,0,1-.86-.18A.63.63,0,0,1,114.45,48.58Z"/><path class="cls-1" d="M115.2,54.23l-.72-1.51,1.07-.5,2.06,4.29-1.06.51-.74-1.53-4.52,2.18-.61-1.27Z"/><path class="cls-1" d="M118.87,60.05l-5.87,2-.46-1.34,5.87-2Zm.5-1.58a.64.64,0,0,1,.81.41.62.62,0,0,1-.4.79.63.63,0,0,1-.79-.39A.64.64,0,0,1,119.37,58.47Z"/><path class="cls-1" d="M117,68.78c.73-.16,1.61-.35,2.5-.5v0c-.82,0-1.73-.15-2.49-.26l-2.52-.31-.2-1.08,2.25-1.08c.68-.32,1.52-.69,2.29-1v0c-.83.11-1.78.26-2.55.35l-2.33.31-.24-1.28,6.18-.71L120.2,65l-1.94,1c-.67.32-1.39.65-2.09.92v0c.74,0,1.58.11,2.3.19l2.14.28.33,1.81-6,1.43-.24-1.34Z"/><path class="cls-1" d="M121.1,75.45a10.68,10.68,0,0,1,0,1.82,3.36,3.36,0,0,1-.47,1.81,1.35,1.35,0,0,1-1.26.66,1.41,1.41,0,0,1-1.26-1.1h0a1.54,1.54,0,0,1-1.61,1.13,1.63,1.63,0,0,1-1.27-.73,3.91,3.91,0,0,1-.4-2.47,13,13,0,0,1,.19-1.51Zm-5.2,1a4.88,4.88,0,0,0-.06.54c0,.64.16,1.21.81,1.26s.91-.51,1-1.2l0-.48Zm2.74.19,0,.45c0,.74.23,1.15.69,1.18s.74-.31.78-.94a3.8,3.8,0,0,0,0-.6Z"/><path class="cls-1" d="M115.66,83.06l-1.45-.79.33-1.42,5.61,3.25-.42,1.8-6.47.46.34-1.47,1.66-.1Zm.67,1.77,1.37-.08c.38,0,.85,0,1.23,0v0c-.34-.18-.78-.37-1.1-.55l-1.2-.66Z"/><path class="cls-1" d="M118.46,90.26l-.54,1.28-2.53-1v0c.17.22.31.44.47.65l1.36,2.09-.66,1.59-1.65-2.91-4.12.64.63-1.52,3-.37-.4-.75-1.87-.77.53-1.29Z"/><path class="cls-1" d="M110.57,96.06l-1.11-1.22.78-1.23,4.22,4.92-1,1.55-6.27-1.69.81-1.28,1.6.45Zm0,1.89,1.32.38c.37.1.82.25,1.18.37h0c-.27-.28-.61-.61-.86-.88l-.91-1Z"/><path class="cls-1" d="M106.22,99.66l4.6,4.17-1.1,1.22-2.55-.58a18.26,18.26,0,0,1-2.26-.67l0,0a23.33,23.33,0,0,1,2,1.64l1.35,1.22-.87,1-4.6-4.17,1-1.09,2.67.62a23.68,23.68,0,0,1,2.34.68v0c-.63-.52-1.29-1.1-2-1.78l-1.38-1.25Z"/><path class="cls-1" d="M105.09,109.69l-1.09.88-3.15-3.92-1.92,1.55-.74-.92,3-2.43Z"/><path class="cls-1" d="M98.93,114.18l-3.32-5.24,1.18-.75,3.33,5.24Z"/><path class="cls-1" d="M89.23,112.49A7.38,7.38,0,0,1,91,111.3a3.44,3.44,0,0,1,2.64-.29,3,3,0,0,1,1.74,1.68c.86,1.87,0,3.57-1.86,4.43a4.24,4.24,0,0,1-1.69.44l-.2-1.14a3.49,3.49,0,0,0,1.42-.36,2,2,0,0,0-1.6-3.72,2,2,0,0,0-.59.38l.55,1.18.86-.41.47,1-2.1,1ZM95,118.07a.48.48,0,0,0-.67-.16.52.52,0,0,0-.35.63l-.65.3a1.12,1.12,0,0,1,.68-1.59,1.11,1.11,0,0,1,1.66.51Z"/><path class="cls-1" d="M87.64,119.18l-1.82-5.93,1.34-.41L89,118.77Z"/><path class="cls-1" d="M74.55,116.71a1.8,1.8,0,1,0,1.79,1.79A1.79,1.79,0,0,0,74.55,116.71Z"/><path class="cls-1" d="M70.4,53.27c.17-2,2.57-2.59,2.25-4.48C72.25,51,70.51,50.58,70.4,53.27Zm-1.08,1.91A5.28,5.28,0,0,1,68.94,53a5.84,5.84,0,0,1,1.94-4.07c1.15-1,1.42-1.94.81-2.75a3,3,0,0,1,2.41,3.14c-.1,2.63-2.29,3.06-2.4,5.9Zm9.16-6.35A5.34,5.34,0,0,1,80.16,53a5.72,5.72,0,0,1-.55,2.22H77.46c.73-.85,1.62-1.54,1.41-2.74-.27,1.54-1.21,1.8-1.78,2.74h-2.4a2.3,2.3,0,0,1,.59-.82,6.6,6.6,0,0,1,.55-.49l.64-.52a4.7,4.7,0,0,0,2-3.09A5.23,5.23,0,0,0,78.48,48.83ZM74.1,55.18H72.26a4.56,4.56,0,0,1,1.1-2.74c.14-.2.29-.4.43-.61a5.35,5.35,0,0,0,.41-.7,4.47,4.47,0,0,0,.47-1.86,4.2,4.2,0,0,0-.84-2.52c-1.93-2.41-1.14-4.65.82-5.12-1.11,1.08-1,2.22.22,3.62a1,1,0,0,1,1-1.08c-.62.63-.35,1.23.24,2,.13.16.29.35.48.55a3.88,3.88,0,0,1,1.33,3.48C77.69,52.63,74.62,53.37,74.1,55.18Z"/><path class="cls-1" d="M76.4,82.2A3.92,3.92,0,0,1,75,83.58a4,4,0,0,1-1.75.5H73a4,4,0,0,1-4-4,4.05,4.05,0,0,1,2.35-3.67,3.94,3.94,0,0,1,.48-.18,4,4,0,0,1,4.61,1.69A3.19,3.19,0,0,0,74,76.82a3.32,3.32,0,0,0-1.34.29,3.5,3.5,0,0,0-.42.24,3.22,3.22,0,0,0-1.37,1.89,3.59,3.59,0,0,0-.1.81A3.16,3.16,0,0,0,71.42,82,3.21,3.21,0,0,0,74,83.28h0a3.11,3.11,0,0,0,.62-.06,3.21,3.21,0,0,0,1.78-1"/><polygon class="cls-1" points="79.2 80.36 79.84 81.24 78.45 80.78 77.58 81.97 77.58 80.5 76.19 80.05 77.58 79.59 77.58 78.13 77.95 78.64 78.45 79.32 79.84 78.86 78.98 80.05 79.2 80.36"/><path class="cls-1" d="M74.36,71a8.89,8.89,0,1,0,8.89,8.88A8.88,8.88,0,0,0,74.36,71Zm0,16.82a7.94,7.94,0,1,1,7.94-7.94A7.93,7.93,0,0,1,74.36,87.78Z"/><path class="cls-2" d="M101.63,76.57l-1.12-1.12,1.17,15.72c-4,.36-6.33.65-10.35.08-1.82-.26-3.63-.61-5.44-.8-5.44-.55-6.25-.19-9.66,2.27V91.43c3.37-2.34,4.57-2.53,9.75-2,3.86.39,7.59,1.42,11.51,1.08l3.07-.27L99.38,74.33l-1.11-1.1L99.46,89.3a30.28,30.28,0,0,1-7.84-.09c-1.84-.26-3.68-.62-5.52-.81-4.9-.5-6.46-.48-9.85,1.77V88.93c3.37-2.11,5.36-2,9.95-1.55,1.85.19,3.7.55,5.56.81a27.34,27.34,0,0,0,6.58.17L97.14,72.11,97,72l-1-1V71h0a24.18,24.18,0,0,1-2.6-.32,87,87,0,0,0-10.67-1.09,14.3,14.3,0,0,0-6.08,1.21l.06-2.5v-.84a1.06,1.06,0,0,0,.5-.48c.18-.47.39-.69.66-.64v-.38a6.7,6.7,0,0,0,4.44-4.68L82.51,60q.06-.54.09-1.14l-1.11-1.1V55.94H67.71v1.85l-1.1,1.1A6.83,6.83,0,0,0,66.67,60l.26,1.28a7,7,0,0,0,4.45,4.64v.38c.38,0,.55.23.62.6a1,1,0,0,0,.54.52l0,.79.07,2.61a14.33,14.33,0,0,0-6.24-1.27,85.83,85.83,0,0,0-10.62,1,25,25,0,0,1-2.62.33,28.38,28.38,0,0,0,3.34-.22c1.84-.22,5.85-.25,7.7-.42a13.67,13.67,0,0,1,7.26,1.37A8.37,8.37,0,0,1,74,71.17l0-3.8h1.08l0,3.82a9.14,9.14,0,0,1,2.28.54,13.73,13.73,0,0,1,7.42-1.44c1.85.17,5.92.25,7.76.47A30,30,0,0,0,96,71h0v.31l1.2,16.1-.79,0A23.26,23.26,0,0,1,92,87.09a63.36,63.36,0,0,0-8.56-1h-.9a16.33,16.33,0,0,0-2.52.28,8.74,8.74,0,0,1-4.74,2.07v.2l0,9.33a.68.68,0,0,1-1.35,0l0-5.7h0v-3.8a8.69,8.69,0,0,1-5.32-2.18,17.66,17.66,0,0,0-2.08-.2h-.9a63.54,63.54,0,0,0-8.56,1,23.16,23.16,0,0,1-4.33.34l-.8,0,1.21-16.1V71h0V71l-1,1-.1.1L50.74,88.36a27.34,27.34,0,0,0,6.58-.17c1.86-.26,3.71-.62,5.57-.81,4.63-.47,6.67-.37,10.11,1.84v1.19c-3.45-2.32-5.08-2.51-10-2-1.84.19-3.68.55-5.52.81a30.28,30.28,0,0,1-7.84.09l1.2-16.07-1.12,1.1L48.52,90.24l3.07.27c3.92.34,7.65-.69,11.51-1.08,5.22-.54,6.48-.17,9.92,2.24v1.25c-3.53-2.57-4.3-3-9.82-2.47-1.81.19-3.62.54-5.44.8-4,.57-6.31.28-10.35-.08l1.17-15.72-1.12,1.12L46.3,92.11c4.55.4,7.13.79,11.61.16,1.8-.26,3.6-.61,5.4-.79,4.19-.43,5.54-.24,8.18,1.67L73,94.23v3.89a1.58,1.58,0,0,0,1.57,1.57h0a1.58,1.58,0,0,0,1.57-1.57V94.06l1.38-.91c2.65-1.91,4-2.1,8.18-1.67,1.8.18,3.6.53,5.4.79,4.48.63,7.06.24,11.61-.16ZM68.91,57.11H80.3v1.11H68.91ZM68.46,62a5.35,5.35,0,0,1-.54-1.43,7.55,7.55,0,0,1-.13-1H81.4a5.15,5.15,0,0,1-.13,1A5,5,0,0,1,80.72,62a6.56,6.56,0,0,1-4,3.12H72.51A6.57,6.57,0,0,1,68.46,62Zm7.59,4.9h-2.9a.59.59,0,0,1-.31-.35,1.12,1.12,0,0,0-.33-.53v-.07h4.18V66a.88.88,0,0,0-.31.44A.61.61,0,0,1,76.05,66.88Z"/></g></g></svg>